# Blender 3.6.5
# www.blender.org
mtllib CellPhoneBuilding_01.mtl
o Cube
v 0.679953 6.000000 -1.000000
v 0.679953 0.000000 -1.000000
v 0.679953 6.000000 1.000000
v 0.679953 0.000000 1.000000
v -0.679953 5.433464 -0.433463
v -0.298609 0.241796 -0.758204
v -0.679953 5.433464 0.433463
v -0.298609 0.241796 0.758204
v 0.679953 2.000000 1.000000
v -0.679953 2.566536 0.433463
v 0.679953 2.000000 -1.000000
v -0.679953 2.566536 -0.433463
v 0.000000 6.000000 1.000000
v 0.679953 6.000000 0.000000
v -0.679953 5.433464 0.000000
v -0.679953 5.433464 -0.500000
v 0.679953 6.000000 -0.500000
v 0.000000 6.000000 -0.500000
v -0.339976 6.000000 -0.500000
v 0.339976 6.000000 -0.500000
v -0.679953 7.368160 -0.500000
v -0.679953 7.368160 -1.000000
v 0.339976 7.368160 -1.000000
v 0.679953 7.368160 -1.000000
v -0.339976 7.368160 -1.000000
v 0.000000 7.368160 -1.000000
v 0.679953 7.368160 -0.500000
v 0.000000 7.368160 -0.500000
v -0.339976 7.368160 -0.500000
v 0.339976 7.368160 -0.500000
v -0.679953 1.758204 0.758204
v -0.679953 1.758204 -0.758204
v -0.679953 6.000000 -0.500000
v -0.679953 6.000000 -1.000000
v -0.679953 6.000000 1.000000
v -0.679953 6.000000 0.000000
v -0.378333 2.566536 0.433463
v -0.378333 2.566536 -0.433463
v -0.378333 5.433464 -0.500000
v -0.378333 5.433464 -0.433463
v -0.378333 5.433464 0.433463
v -0.378333 5.433464 0.000000
v -0.679953 0.000000 -1.000000
v -0.679953 0.000000 1.000000
v -0.679953 2.000000 1.000000
v -0.679953 2.000000 -1.000000
v -0.298609 0.241796 -0.758204
v -0.298609 0.241796 0.758204
v -0.679953 1.758204 0.758204
v -0.679953 1.758204 -0.758204
v 0.087168 0.241796 -0.758204
v 0.087168 0.241796 0.758204
v 0.087168 1.758204 0.758204
v 0.087168 1.758204 -0.758204
v -0.679953 0.000000 0.000000
v -0.298609 0.241796 0.000000
v -0.679953 0.120898 0.879102
v -0.679953 0.120898 -0.879102
v -0.679953 0.120898 0.000000
vn -0.0000 1.0000 -0.0000
vn -0.0000 -1.0000 -0.0000
vn -0.0000 -0.0000 -1.0000
vn -0.0000 -0.0000 1.0000
vn -1.0000 -0.0000 -0.0000
vn -0.8052 -0.0437 -0.5913
vn -0.8052 -0.0437 0.5913
vn -0.3022 0.9532 -0.0000
vn 1.0000 -0.0000 -0.0000
vt 0.594775 0.030225
vt 0.594775 0.219775
vt 0.125000 0.500000
vt 0.375000 0.500000
vt 0.375000 0.750000
vt 0.125000 0.750000
vt 0.125000 0.625000
vt 0.375000 0.250000
vt 0.875000 0.500000
vt 0.812500 0.500000
vt 0.750000 0.500000
vt 0.687500 0.500000
vt 0.625000 0.500000
vt 0.875000 0.679183
vt 0.875000 0.625000
vt 0.625000 0.750000
vt 0.750000 0.750000
vt 0.875000 0.750000
vt 0.625000 1.000000
vt 0.375000 1.000000
vt 0.812500 0.562500
vt 0.750000 0.562500
vt 0.687500 0.562500
vt 0.625000 0.562500
vt 0.875000 0.562500
vt 0.875000 0.625000
vt 0.625000 0.625000
vt 0.875000 0.679183
vt 0.875000 0.570817
vt 0.875000 0.570817
vt 0.390112 0.125000
vt 0.390112 0.234888
vt 0.375000 0.125000
vt 0.405225 0.030225
vt 0.390112 0.015112
vt 0.375000 0.000000
vt 0.625000 0.000000
vt 0.405225 0.219775
vt 0.625000 0.250000
vt 0.405225 0.125000
s 0
usemtl Material
f 31/1/1 32/2/1 50/2/1 49/1/1
f 43/3/2 2/4/2 4/5/2 44/6/2 55/7/2
f 43/8/3 46/9/3 34/9/3 22/9/3 25/10/3 26/11/3 23/12/3 24/13/3 1/13/3 11/13/3 2/4/3
f 7/14/2 15/15/2 42/15/2 41/14/2
f 4/5/4 9/16/4 3/16/4 13/17/4 35/18/4 45/19/4 44/20/4
f 19/21/4 18/22/4 20/23/4 17/24/4 27/24/4 30/23/4 28/22/4 29/21/4 21/25/4 33/25/4
f 34/9/5 33/25/5 21/25/5 22/9/5
f 26/11/1 25/10/1 22/9/1 21/25/1 29/21/1 28/22/1 30/23/1 27/24/1 24/13/1 23/12/1
f 36/26/1 35/18/1 13/17/1 3/16/1 14/27/1 17/24/1 20/23/1 18/22/1 19/21/1 33/25/1
f 10/28/5 12/29/5 46/9/5 45/18/5
f 5/30/5 16/25/5 33/25/5 34/9/5
f 7/14/5 10/28/5 45/18/5 35/18/5
f 12/29/5 5/30/5 34/9/5 46/9/5
f 15/15/5 7/14/5 35/18/5 36/26/5
f 16/25/5 15/15/5 36/26/5 33/25/5
f 41/14/5 42/15/5 39/25/5 40/30/5 38/29/5 37/28/5
f 10/28/3 7/14/3 41/14/3 37/28/3
f 12/29/1 10/28/1 37/28/1 38/29/1
f 15/15/2 16/25/2 39/25/2 42/15/2
f 5/30/4 12/29/4 38/29/4 40/30/4
f 16/25/1 5/30/1 40/30/1 39/25/1
f 59/31/5 58/32/5 43/8/5 55/33/5
f 31/1/6 8/34/6 57/35/6 44/36/6 45/37/6
f 6/38/7 32/2/7 46/39/7 43/8/7 58/32/7
f 32/2/5 31/1/5 45/37/5 46/39/5
f 50/2/4 47/38/4 51/38/4 54/2/4
f 8/34/1 31/1/1 49/1/1 48/34/1
f 32/2/1 6/38/1 47/38/1 50/2/1
f 6/38/1 56/40/1 8/34/1 48/34/1 47/38/1
f 52/34/5 53/1/5 54/2/5 51/38/5
f 47/38/1 48/34/1 52/34/1 51/38/1
f 49/1/2 50/2/2 54/2/2 53/1/2
f 48/34/3 49/1/3 53/1/3 52/34/3
f 57/35/5 59/31/5 55/33/5 44/36/5
f 8/34/8 56/40/8 59/31/8 57/35/8
f 56/40/8 6/38/8 58/32/8 59/31/8
f 1/13/9 24/13/9 27/24/9 17/24/9 14/27/9 3/16/9 9/16/9 4/5/9 2/4/9 11/13/9
