# Blender 3.6.5
# www.blender.org
mtllib LargeRectangle.mtl
o Cube
v 1.000000 2.803303 -1.000000
v 1.000000 0.000000 -1.000000
v 1.000000 2.803303 1.000000
v 1.000000 0.000000 1.000000
v -1.000000 2.803303 -1.000000
v -1.000000 0.000000 -1.000000
v -1.000000 2.803303 1.000000
v -1.000000 0.000000 1.000000
v -3.893847 0.000000 -1.000000
v -3.893847 0.000000 1.000000
v 3.893847 2.803303 -1.000000
v 3.893847 0.000000 -1.000000
v -3.893847 2.803303 1.000000
v 3.893847 2.803303 1.000000
v 3.893847 0.000000 1.000000
v -3.893847 2.803303 -1.000000
v 1.000000 2.803303 0.843906
v -1.000000 2.803303 0.843906
v -1.000000 2.803303 -0.843906
v 1.000000 2.803303 -0.843906
v 3.737753 2.803303 -0.843906
v 3.737753 2.803303 0.843906
v -3.737753 2.803303 0.843906
v -3.737753 2.803303 -0.843906
v 1.000000 2.803303 1.000000
v -1.000000 2.803303 1.000000
v -1.000000 2.803303 -1.000000
v 1.000000 2.803303 -1.000000
v 3.893847 2.803303 -1.000000
v 3.893847 2.803303 1.000000
v -3.893847 2.803303 1.000000
v -3.893847 2.803303 -1.000000
v 1.000000 3.162847 0.843906
v -1.000000 3.162847 0.843906
v -1.000000 3.162847 -0.843906
v 1.000000 3.162847 -0.843906
v 3.737753 3.162847 -0.843906
v 3.737753 3.162847 0.843906
v -3.737753 3.162847 0.843906
v -3.737753 3.162847 -0.843906
v 1.000000 3.162847 -0.843906
v -1.000000 3.162847 -0.843906
v -3.737753 3.162847 -0.843906
v -3.737753 3.162847 0.843906
v -1.000000 3.162847 0.843906
v 1.000000 3.162847 0.843906
v 3.737753 3.162847 0.843906
v 3.737753 3.162847 -0.843906
v 0.000000 4.162848 -0.000000
vn -0.0000 1.0000 -0.0000
vn -0.0000 -0.0000 1.0000
vn -0.0000 -0.0000 -1.0000
vn -0.0000 -1.0000 -0.0000
vn -1.0000 -0.0000 -0.0000
vn 1.0000 -0.0000 -0.0000
vn -0.0000 0.6449 -0.7642
vn -0.2585 0.9660 -0.0000
vn -0.0000 0.6449 0.7642
vn 0.2585 0.9660 -0.0000
vt 0.625000 0.250000
vt 0.625000 0.000000
vt 0.375000 0.750000
vt 0.625000 0.750000
vt 0.625000 1.000000
vt 0.375000 1.000000
vt 0.860306 0.519512
vt 0.874090 0.519512
vt 0.125000 0.500000
vt 0.375000 0.500000
vt 0.125000 0.750000
vt 0.625000 0.500000
vt 0.375000 0.250000
vt 0.375000 0.000000
vt 0.639694 0.730488
vt 0.860306 0.730488
vt 0.875000 0.750000
vt 0.639694 0.519512
vt 0.875000 0.500000
vt 0.625910 0.519512
vt 0.625910 0.730488
vt 0.874090 0.730488
vt 0.750000 0.625000
s 0
usemtl Material
f 16/1/1 13/2/1 31/2/1 32/1/1
f 4/3/2 3/4/2 7/5/2 8/6/2
f 19/7/3 24/8/3 40/8/3 35/7/3
f 6/9/4 2/10/4 4/3/4 8/11/4
f 11/12/1 1/12/1 28/12/1 29/12/1
f 6/13/3 5/1/3 1/12/3 2/10/3
f 10/14/5 13/2/5 16/1/5 9/13/5
f 12/10/6 11/12/6 14/4/6 15/3/6
f 5/1/3 6/13/3 9/13/3 16/1/3
f 8/6/2 7/5/2 13/5/2 10/14/2
f 3/4/2 4/3/2 15/3/2 14/4/2
f 2/10/3 1/12/3 11/12/3 12/10/3
f 4/3/4 2/10/4 12/10/4 15/3/4
f 6/9/4 8/11/4 10/11/4 9/9/4
f 5/1/1 16/1/1 32/1/1 27/1/1
f 13/5/1 7/5/1 26/5/1 31/5/1
f 1/12/1 5/1/1 27/1/1 28/12/1
f 7/5/1 3/4/1 25/4/1 26/5/1
f 14/4/1 11/12/1 29/12/1 30/4/1
f 3/4/1 14/4/1 30/4/1 25/4/1
f 17/15/1 18/16/1 26/17/1 25/4/1
f 19/7/1 20/18/1 28/12/1 27/19/1
f 21/20/1 22/21/1 30/4/1 29/12/1
f 23/22/1 24/8/1 32/19/1 31/17/1
f 24/8/1 19/7/1 27/19/1 32/19/1
f 18/16/1 23/22/1 31/17/1 26/17/1
f 22/21/1 17/15/1 25/4/1 30/4/1
f 20/18/1 21/20/1 29/12/1 28/12/1
f 22/21/6 21/20/6 37/20/6 38/21/6
f 18/16/2 17/15/2 33/15/2 34/16/2
f 21/20/3 20/18/3 36/18/3 37/20/3
f 23/22/2 18/16/2 34/16/2 39/22/2
f 24/8/5 23/22/5 39/22/5 40/8/5
f 20/18/3 19/7/3 35/7/3 36/18/3
f 17/15/2 22/21/2 38/21/2 33/15/2
f 35/7/1 42/7/1 41/18/1 36/18/1
f 40/8/1 43/8/1 42/7/1 35/7/1
f 39/22/1 44/22/1 43/8/1 40/8/1
f 34/16/1 45/16/1 44/22/1 39/22/1
f 33/15/1 46/15/1 45/16/1 34/16/1
f 38/21/1 47/21/1 46/15/1 33/15/1
f 37/20/1 48/20/1 47/21/1 38/21/1
f 36/18/1 41/18/1 48/20/1 37/20/1
f 41/18/7 42/7/7 49/23/7
f 42/7/7 43/8/7 49/23/7
f 43/8/8 44/22/8 49/23/8
f 44/22/9 45/16/9 49/23/9
f 45/16/9 46/15/9 49/23/9
f 46/15/9 47/21/9 49/23/9
f 47/21/10 48/20/10 49/23/10
f 48/20/7 41/18/7 49/23/7
