# Blender 4.0.2
# www.blender.org
mtllib low_buildingB.mtl
o low_buildingB
v -0.137206 2.644114 -0.701813
v -0.859468 2.644114 -0.701813
v -0.137206 2.734396 -0.701813
v -0.859468 2.734396 -0.701813
v -0.859468 2.734396 -0.522523
v -0.859468 2.644114 -0.522523
v -0.137206 2.644114 -0.301812
v -0.137206 2.734396 -0.301812
v -0.046923 2.734396 -0.251812
v -0.046923 2.734396 -0.751812
v -0.949751 2.734396 -0.751812
v -0.498337 2.734396 -0.251812
v -0.460941 2.734396 -0.301812
v -0.949751 2.734396 -0.501812
v -0.182348 2.644114 -0.576813
v -0.182348 2.644114 -0.426812
v -0.362913 2.644114 -0.576813
v -0.362913 2.644114 -0.426812
v -0.362913 2.644114 -0.326812
v -0.182348 2.644114 -0.326812
v -0.182348 2.644114 -0.676812
v -0.362913 2.644114 -0.676812
v -0.408054 2.644114 -0.676812
v -0.588620 2.644114 -0.676812
v -0.588620 2.644114 -0.576813
v -0.460941 2.644114 -0.301812
v -0.408054 2.644114 -0.576813
v -0.949751 0.928741 -0.501812
v -0.498337 0.928741 -0.251812
v -0.408054 2.734396 -0.676812
v -0.408054 2.734396 -0.576813
v -0.588620 2.734396 -0.676812
v -0.588620 2.734396 -0.576813
v -0.137206 0.296762 -0.701812
v -0.137206 0.296762 -0.751812
v -0.859468 0.296762 -0.701812
v -0.859468 0.296762 -0.751812
v -0.859468 0.025914 -0.701812
v -0.859468 0.025914 -0.751812
v -0.949751 0.025914 -0.701812
v -0.949751 0.025914 -0.751812
v -0.046923 0.025914 -0.701812
v -0.046923 0.025914 -0.751812
v -0.137206 0.025914 -0.701812
v -0.137206 0.025914 -0.751812
v -0.949751 0.296762 -0.701812
v -0.046923 0.025914 -0.251812
v -0.046923 0.025914 -0.301812
v -0.137206 0.025914 -0.251812
v -0.137206 0.025914 -0.301812
v -0.046923 0.296762 -0.701812
v -0.046923 0.296762 -0.301812
v -0.137206 0.296762 -0.301812
v -0.137206 0.296762 -0.251812
v -0.949751 0.928741 -0.251812
v -0.949751 0.025914 -0.301812
v -0.949751 0.296762 -0.301812
v -0.949751 0.025914 -0.251812
v -0.859468 0.025914 -0.251812
v -0.859468 0.025914 -0.301812
v -0.859468 0.296762 -0.301812
v -0.859468 0.296762 -0.251812
v -0.182348 2.734396 -0.676812
v -0.182348 2.734396 -0.576813
v -0.362913 2.734396 -0.676812
v -0.362913 2.734396 -0.576813
v -0.182348 2.824679 -0.326813
v -0.362913 2.824679 -0.326813
v -0.295201 2.824679 -0.389313
v -0.295201 3.185810 -0.389313
v -0.295201 2.824679 -0.364312
v -0.295201 3.185810 -0.364313
v -0.362913 2.824679 -0.426812
v -0.250060 3.185810 -0.389313
v -0.250060 2.824679 -0.389313
v -0.250060 3.185810 -0.364313
v -0.250060 2.824679 -0.364312
v -0.182348 2.824679 -0.426812
vn -0.0000 -0.0000 -1.0000
vn -0.0000 -1.0000 -0.0000
vn 0.4845 -0.0000 -0.8748
vn -1.0000 -0.0000 -0.0000
vn -0.0000 -0.0000 1.0000
vn -0.0000 1.0000 -0.0000
vn -0.0000 -0.0000 -0.0000
vn 1.0000 -0.0000 -0.0000
vn 1.0000 -0.0000 -0.0001
vn 1.0000 -0.0000 0.0001
vn -0.4845 -0.0000 0.8748
vt 0.000000 0.000000
vt -7.874016 7.874016
vt -7.874016 -7.874016
vt 7.874016 -7.874016
vt 7.874016 7.874016
vt 7.874016 5.905512
vt -7.874016 5.905512
vt -7.874016 0.000000
vt 7.874016 0.000000
s 0
usemtl _defaultMat.014
f 50/1/1 53/1/1 52/1/1 48/1/1
f 13/1/3 26/1/3 6/1/3 5/1/3
f 25/1/4 33/1/4 32/1/4 24/1/4
f 4/1/6 3/1/6 10/1/6 11/1/6 14/1/6 5/1/6
f 44/1/2 45/1/2 43/1/2 42/1/2
f 18/1/7 17/1/7 19/1/7
f 20/1/7 15/1/7 16/1/7
f 20/1/7 21/1/7 15/1/7
f 5/1/8 6/1/8 2/1/8 4/1/8
f 25/1/6 24/1/6 23/1/6 2/1/6 6/1/6
f 36/1/2 37/1/2 35/1/2 34/1/2
f 31/1/5 33/1/5 25/1/5 27/1/5
f 25/1/6 6/1/6 26/1/6 19/1/6 17/1/6 22/1/6 21/1/6 1/1/6 2/1/6 23/1/6 27/1/6
f 1/1/6 21/1/6 20/1/6 19/1/6 26/1/6 7/1/6
f 13/1/1 8/1/1 7/1/1 26/1/1
f 32/1/1 30/1/1 23/1/1 24/1/1
f 31/1/8 27/1/8 23/1/8 30/1/8
f 17/1/6 18/1/6 16/1/6 15/1/6
f 49/1/4 54/1/4 53/1/4 50/1/4
f 12/1/6 9/1/6 10/1/6 3/1/6 8/1/6 13/1/6 5/1/6 14/1/6
f 49/1/2 50/1/2 48/1/2 47/1/2
f 40/1/2 41/1/2 39/1/2 38/1/2
f 55/1/6 29/1/6 28/1/6
f 38/1/5 36/1/5 46/1/5 40/1/5
f 7/1/4 8/1/4 3/1/4 1/1/4
f 28/1/4 14/1/4 11/1/4 41/1/4 40/1/4 46/1/4 57/1/4 56/1/4 58/1/4 55/1/4
f 36/7/8 39/9/8 37/6/8
f 39/7/8 36/9/8 38/6/8
f 58/4/2 60/2/2 59/3/2
f 60/4/2 58/2/2 56/3/2
f 62/8/8 60/6/8 61/7/8
f 60/8/8 62/6/8 59/7/8
f 9/9/8 43/7/8 10/8/8
f 43/9/9 9/7/10 51/8/10
f 52/9/8 9/7/8 48/8/8
f 51/9/8 9/7/8 52/8/8
f 48/9/8 9/7/8 47/8/8
f 42/9/8 43/7/8 51/8/8
f 57/9/1 60/7/1 56/8/1
f 60/9/1 57/7/1 61/8/1
f 9/9/5 49/7/5 47/8/5
f 49/9/5 9/7/5 54/8/5
f 29/9/5 9/7/5 12/8/5
f 54/9/5 9/7/5 29/8/5
f 54/9/5 29/7/5 62/8/5
f 62/9/5 29/7/5 55/8/5
f 62/9/5 58/7/5 59/8/5
f 58/9/5 62/7/5 55/8/5
f 53/9/2 51/7/2 52/8/2
f 51/9/2 53/7/2 34/8/2
f 11/9/1 39/7/1 41/8/1
f 39/9/1 11/7/1 37/8/1
f 37/9/1 11/7/1 35/8/1
f 35/9/1 43/7/1 45/8/1
f 43/9/1 35/7/1 10/8/1
f 10/9/1 35/7/1 11/8/1
f 62/9/2 53/7/2 54/8/2
f 53/9/2 62/7/2 61/8/2
f 57/9/2 36/7/2 61/8/2
f 36/9/2 57/7/2 46/8/2
f 65/9/6 64/7/6 63/8/6
f 64/9/6 65/7/6 66/8/6
f 64/9/5 17/7/5 15/8/5
f 17/9/5 64/7/5 66/8/5
f 64/9/8 21/7/8 63/8/8
f 21/9/8 64/7/8 15/8/8
f 65/9/1 21/7/1 22/8/1
f 21/9/1 65/7/1 63/8/1
f 17/9/4 65/7/4 22/8/4
f 65/9/4 17/7/4 66/8/4
f 67/9/5 19/7/5 20/8/5
f 19/9/5 67/7/5 68/8/5
f 71/9/4 70/7/4 69/8/4
f 70/9/4 71/7/4 72/8/4
f 19/9/4 73/7/4 18/8/4
f 73/9/4 19/7/4 68/8/4
f 76/9/8 75/7/8 74/8/8
f 75/9/8 76/7/8 77/8/8
f 73/9/1 16/7/1 18/8/1
f 16/9/1 73/7/1 78/8/1
f 78/9/6 75/7/6 67/8/6
f 75/9/6 78/7/6 73/8/6
f 75/9/6 73/7/6 69/8/6
f 69/9/6 73/7/6 71/8/6
f 67/9/6 77/7/6 68/8/6
f 77/9/6 67/7/6 75/8/6
f 68/9/6 77/7/6 71/8/6
f 68/9/6 71/7/6 73/8/6
f 67/9/8 16/7/8 78/8/8
f 16/9/8 67/7/8 20/8/8
f 76/9/5 71/7/5 77/8/5
f 71/9/5 76/7/5 72/8/5
f 70/9/6 76/7/6 74/8/6
f 76/9/6 70/7/6 72/8/6
f 70/9/1 75/7/1 69/8/1
f 75/9/1 70/7/1 74/8/1
f 51/1/5 34/1/5 44/1/5 42/1/5
f 29/1/11 12/1/11 14/1/11 28/1/11
f 3/1/5 4/1/5 2/1/5 1/1/5
f 32/1/6 33/1/6 31/1/6 30/1/6
f 44/1/4 34/1/4 35/1/4 45/1/4
usemtl border.010
f 60/2/2 38/3/2 44/4/2 50/5/2
f 53/6/5 61/7/5 60/8/5 50/9/5
f 53/7/8 50/8/8 44/9/8 34/6/8
f 36/6/1 34/7/1 44/8/1 38/9/1
f 60/9/4 61/6/4 36/7/4 38/8/4
