# Blender 4.0.2
# www.blender.org
mtllib low_buildingA.mtl
o low_buildingA
v -0.062781 0.883079 -0.636308
v -0.062781 0.004766 -0.636308
v -0.062781 0.883079 -0.136308
v -0.062781 0.004766 -0.136308
v -0.941094 0.004766 -0.136308
v -0.941094 0.883079 -0.136308
v -0.721516 0.004766 -0.136308
v -0.721516 0.883079 -0.136308
v -0.589769 0.004766 -0.186308
v -0.589769 0.004766 -0.236308
v -0.721516 0.004766 -0.186308
v -0.282359 0.004766 -0.136308
v -0.282359 0.004766 -0.186308
v -0.941094 0.004766 -0.636308
v -0.414106 0.004766 -0.236308
v -0.414106 0.004766 -0.186308
v -0.282359 0.883079 -0.186308
v -0.282359 0.883079 -0.136308
v -0.721516 0.883079 -0.186308
v -0.941094 0.883079 -0.636308
v -0.238444 1.761392 -0.236308
v -0.414106 1.761392 -0.236308
v -0.238444 2.639705 -0.236309
v -0.589769 1.761392 -0.236308
v -0.765432 1.761392 -0.236308
v -0.765432 2.639705 -0.236309
v -0.765432 1.761392 -0.536308
v -0.238444 1.761392 -0.536308
v -0.765432 2.639705 -0.536309
v -0.238444 2.639705 -0.536309
v -0.677600 2.595789 -0.286309
v -0.326275 2.595789 -0.286309
v -0.677600 2.639705 -0.286309
v -0.326275 2.639705 -0.286309
v -0.326275 2.595789 -0.486309
v -0.326275 2.639705 -0.486309
v -0.677600 2.639705 -0.486309
v -0.677600 2.595789 -0.486309
v -0.414106 2.771452 -0.336309
v -0.479980 2.771452 -0.398809
v -0.414106 2.771452 -0.436309
v -0.589769 2.771452 -0.436309
v -0.523896 2.771452 -0.398809
v -0.523896 2.771452 -0.373809
v -0.589769 2.771452 -0.336309
v -0.479980 2.771452 -0.373809
v -0.523896 3.122777 -0.398809
v -0.523896 3.122777 -0.373809
v -0.414106 2.595789 -0.436309
v -0.414106 2.595789 -0.336309
v -0.589769 2.595789 -0.436309
v -0.589769 2.595789 -0.336309
v -0.479980 3.122777 -0.398809
v -0.479980 3.122777 -0.373809
v -0.150613 1.761392 -0.586308
v -0.150613 0.883079 -0.586308
v -0.150613 1.761392 -0.186308
v -0.150613 0.883079 -0.186308
v -0.853263 0.883079 -0.586308
v -0.853263 1.761392 -0.586308
v -0.853263 0.883079 -0.186308
v -0.853263 1.761392 -0.186308
v -0.414106 1.761392 -0.186308
v -0.589769 1.761392 -0.186308
vn -0.0000 1.0000 -0.0000
vn -0.0000 -1.0000 -0.0000
vn -1.0000 -0.0000 -0.0000
vn -0.0000 -0.0000 1.0000
vn 1.0000 -0.0000 -0.0000
vn -0.0000 -0.0000 -1.0000
vt 3.937008 -3.937008
vt 3.937008 3.937008
vt -1.968504 1.968504
vt 1.968504 1.968504
vt 1.968504 -1.968504
vt -1.968504 -1.968504
vt -1.968504 0.000000
vt 1.968504 39.370079
vt -1.968504 39.370079
vt -4.921260 9.842520
vt -7.874016 7.874016
vt -4.921260 7.874016
vt -1.968504 7.874016
vt -5.905512 5.905512
vt -1.968504 5.905512
vt 1.968504 0.000000
vt 7.874016 7.874016
vt 7.874016 -7.874016
vt -7.874016 -7.874016
vt -9.842520 9.842520
vt -9.842520 -9.842520
vt 9.842520 -9.842520
vt 9.842520 9.842520
vt 4.921260 9.842520
vt 4.921260 7.874016
vt 1.968504 7.874016
vt 1.968504 5.905512
vt 5.905512 5.905512
vt 5.905512 -5.905512
vt -5.905512 -5.905512
vt 0.000000 0.000000
vt -3.937008 3.937008
vt -3.937008 -3.937008
s 0
usemtl _defaultMat.013
f 11/7/2 10/8/2 9/9/2
f 12/7/2 2/8/2 4/9/2
f 2/7/2 12/8/2 13/9/2
f 2/7/2 13/8/2 14/9/2
f 14/7/2 13/8/2 15/9/2
f 15/7/2 13/8/2 16/9/2
f 14/7/2 15/8/2 10/9/2
f 14/7/2 7/8/2 5/9/2
f 14/7/2 10/8/2 11/9/2
f 14/7/2 11/8/2 7/9/2
f 12/7/3 17/8/3 13/9/3
f 17/7/3 12/8/3 18/9/3
f 3/7/4 12/8/4 4/9/4
f 12/7/4 3/8/4 18/9/4
f 8/10/5 11/11/5 19/12/5
f 11/10/5 8/11/5 7/12/5
f 5/10/3 20/11/3 14/12/3
f 20/10/3 5/11/3 6/12/3
f 20/10/6 2/11/6 14/12/6
f 2/10/6 20/11/6 1/12/6
f 23/10/4 22/11/4 21/12/4
f 22/10/4 23/11/4 24/12/4
f 24/10/4 26/11/4 25/12/4
f 26/10/4 24/11/4 23/12/4
f 29/10/6 28/11/6 27/12/6
f 28/10/6 29/11/6 30/12/6
f 33/10/6 32/11/6 31/12/6
f 32/10/6 33/11/6 34/12/6
f 32/10/3 36/11/3 35/12/3
f 36/10/3 32/11/3 34/12/3
f 25/10/3 29/11/3 27/12/3
f 29/10/3 25/11/3 26/12/3
f 30/2/1 36/4/1 23/1/1
f 36/2/1 30/4/1 29/1/1
f 36/2/1 29/4/1 37/1/1
f 37/2/1 29/4/1 33/1/1
f 23/2/1 34/4/1 26/1/1
f 34/2/1 23/4/1 36/1/1
f 26/2/1 34/4/1 33/1/1
f 26/2/1 33/4/1 29/1/1
f 23/2/5 28/4/5 30/1/5
f 28/2/5 23/4/5 21/1/5
f 33/2/5 38/4/5 37/1/5
f 38/2/5 33/4/5 31/1/5
f 36/2/4 38/4/4 35/1/4
f 38/2/4 36/4/4 37/1/4
f 41/2/1 40/4/1 39/1/1
f 40/2/1 41/4/1 42/1/1
f 40/2/1 42/4/1 43/1/1
f 43/2/1 42/4/1 44/1/1
f 39/2/1 46/4/1 45/1/1
f 46/2/1 39/4/1 40/1/1
f 45/2/1 46/4/1 44/1/1
f 45/2/1 44/4/1 42/1/1
f 44/2/3 47/4/3 43/1/3
f 47/2/3 44/4/3 48/1/3
f 39/2/5 49/4/5 41/1/5
f 49/2/5 39/4/5 50/1/5
f 52/2/3 42/4/3 51/1/3
f 42/2/3 52/4/3 45/1/3
f 42/2/6 49/4/6 51/1/6
f 49/2/6 42/4/6 41/1/6
f 39/2/4 52/4/4 50/1/4
f 52/2/4 39/4/4 45/1/4
f 47/2/1 54/4/1 53/1/1
f 54/2/1 47/4/1 48/1/1
f 54/2/4 44/4/4 46/1/4
f 44/2/4 54/4/4 48/1/4
f 47/2/6 40/4/6 43/1/6
f 40/2/6 47/4/6 53/1/6
f 54/2/5 40/4/5 53/1/5
f 40/2/5 54/4/5 46/1/5
f 57/2/5 56/4/5 55/1/5
f 56/2/5 57/4/5 58/1/5
f 60/2/6 56/4/6 59/1/6
f 56/2/6 60/4/6 55/1/6
f 61/2/3 60/4/3 59/1/3
f 60/2/3 61/4/3 62/1/3
f 57/2/4 17/4/4 58/1/4
f 17/2/4 16/4/4 13/1/4
f 16/2/4 17/4/4 63/1/4
f 63/2/4 17/4/4 57/1/4
f 9/2/4 19/4/4 11/1/4
f 19/2/4 9/4/4 64/1/4
f 62/2/4 19/4/4 64/1/4
f 19/2/4 62/4/4 61/1/4
f 16/13/3 22/14/3 15/15/3
f 22/13/3 16/14/3 63/15/3
f 64/13/5 10/14/5 24/15/5
f 10/13/5 64/14/5 9/15/5
f 7/31/4 8/31/4 6/31/4 5/31/4
f 3/31/5 4/31/5 2/31/5 1/31/5
usemtl border.009
f 38/1/1 31/2/1 50/3/1 52/4/1 51/5/1 49/6/1
f 22/8/4 24/9/4 10/7/4 15/16/4
f 61/17/1 59/18/1 56/19/1 58/11/1 17/12/1 18/10/1 3/20/1 1/21/1 20/22/1 6/23/1 8/24/1 19/25/1
f 55/19/1 60/18/1 62/17/1 64/26/1 24/27/1 25/28/1 27/29/1 28/30/1 21/14/1 22/15/1 63/13/1 57/11/1
f 50/3/1 31/2/1 32/32/1 35/33/1 38/1/1 49/6/1
