# Blender 4.0.2
# www.blender.org
mtllib low_buildingJ.mtl
o low_buildingJ
v -0.749126 0.002910 0.747502
v -0.349126 0.047462 0.747502
v -0.249126 0.002910 0.747502
v -0.249126 0.626637 0.747502
v -0.349126 0.582085 0.747502
v -0.649126 0.582085 0.747502
v -0.749126 0.626637 0.747502
v -0.649126 0.047462 0.747502
v -0.349126 0.047462 0.697502
v -0.349126 0.582085 0.697502
v -0.249126 0.002910 0.247502
v -0.249126 0.582085 0.347502
v -0.249126 0.626637 0.247502
v -0.249126 0.582085 0.647502
v -0.249126 0.047462 0.647502
v -0.249126 0.047462 0.347502
v -0.649126 0.047462 0.247502
v -0.749126 0.002910 0.247502
v -0.749126 0.626637 0.247502
v -0.649126 0.582085 0.247502
v -0.349126 0.582085 0.247502
v -0.349126 0.047462 0.247502
v -0.699126 0.047462 0.647502
v -0.749126 0.047462 0.647502
v -0.699126 0.047462 0.347502
v -0.749126 0.047462 0.347502
v -0.299126 0.002910 0.297502
v -0.299126 0.002910 0.697502
v -0.299126 0.047462 0.647502
v -0.299126 0.582085 0.647502
v -0.349126 0.047462 0.297502
v -0.649126 0.047462 0.297502
v -0.699126 0.002910 0.697502
v -0.649126 0.047462 0.697502
v -0.749126 0.582085 0.647502
v -0.749126 0.582085 0.347502
v -0.349126 0.582085 0.297502
v -0.649126 0.582085 0.697502
v -0.699126 0.002910 0.297502
v -0.299126 0.047462 0.347502
v -0.299126 0.582085 0.347502
v -0.699126 0.582085 0.347502
v -0.699126 0.626637 0.697502
v -0.299126 0.626637 0.297502
v -0.699126 0.582085 0.647502
v -0.649126 0.582085 0.297502
vn -0.0000 -0.0000 1.0000
vn -1.0000 -0.0000 -0.0000
vn 1.0000 -0.0000 -0.0000
vn -0.0000 -0.0000 -1.0000
vn -0.0000 1.0000 -0.0000
vn -0.0000 -1.0000 -0.0000
vt -5.905512 7.874016
vt 5.905512 55.118111
vt -5.905512 55.118111
vt 5.905512 7.874016
s 0
usemtl _defaultMat.022
f 3/1/1 2/2/1 1/3/1
f 2/1/1 3/2/1 4/3/1
f 2/1/1 4/2/1 5/3/1
f 5/1/1 4/2/1 6/3/1
f 1/1/1 8/2/1 7/3/1
f 8/1/1 1/2/1 2/3/1
f 7/1/1 8/2/1 6/3/1
f 7/1/1 6/2/1 4/3/1
f 2/1/2 10/2/2 9/3/2
f 10/1/2 2/2/2 5/3/2
f 13/1/3 12/2/3 11/3/3
f 12/1/3 13/2/3 4/3/3
f 12/1/3 4/2/3 14/3/3
f 14/1/3 4/2/3 15/3/3
f 11/1/3 16/2/3 3/3/3
f 16/1/3 11/2/3 12/3/3
f 3/1/3 16/2/3 15/3/3
f 3/1/3 15/2/3 4/3/3
f 18/1/4 17/2/4 11/3/4
f 17/1/4 18/2/4 19/3/4
f 17/1/4 19/2/4 20/3/4
f 20/1/4 19/2/4 21/3/4
f 11/1/4 22/2/4 13/3/4
f 22/1/4 11/2/4 17/3/4
f 13/1/4 22/2/4 21/3/4
f 13/1/4 21/2/4 19/3/4
f 25/1/5 24/2/5 23/3/5
f 24/1/5 25/2/5 26/3/5
f 30/1/4 15/2/4 29/3/4
f 15/1/4 30/2/4 14/3/4
f 22/1/5 32/2/5 31/3/5
f 32/1/5 22/2/5 17/3/5
f 19/2/5 43/3/5 44/1/5
f 34/1/5 2/2/5 9/3/5
f 2/1/5 34/2/5 8/3/5
f 18/1/2 26/2/2 19/3/2
f 26/1/2 18/2/2 1/3/2
f 26/1/2 1/2/2 24/3/2
f 24/1/2 1/2/2 35/3/2
f 19/1/2 36/2/2 7/3/2
f 36/1/2 19/2/2 26/3/2
f 7/1/2 36/2/2 35/3/2
f 7/1/2 35/2/2 1/3/2
f 22/1/2 37/2/2 21/3/2
f 37/1/2 22/2/2 31/3/2
f 6/1/3 34/2/3 38/3/3
f 34/1/3 6/2/3 8/3/3
f 16/1/1 41/2/1 40/3/1
f 41/1/1 16/2/1 12/3/1
f 3/4/6 28/3/6 11/1/6
f 28/4/6 3/3/6 1/1/6
f 28/4/6 1/3/6 33/1/6
f 33/4/6 1/3/6 39/1/6
f 11/4/6 27/3/6 18/1/6
f 27/4/6 11/3/6 28/1/6
f 18/4/6 27/3/6 39/1/6
f 18/4/6 39/3/6 1/1/6
f 40/4/5 15/3/5 16/1/5
f 15/4/5 40/3/5 29/1/5
f 42/4/1 26/3/1 25/1/1
f 26/4/1 42/3/1 36/1/1
f 6/1/6 10/2/6 5/3/6
f 10/1/6 6/2/6 38/3/6
f 35/1/6 42/2/6 45/3/6
f 42/1/6 35/2/6 36/3/6
f 37/1/6 20/2/6 21/3/6
f 20/1/6 37/2/6 46/3/6
f 13/1/5 44/2/5 4/3/5
f 44/1/5 13/2/5 19/3/5
f 44/3/5 43/3/5 7/3/5 4/2/5
f 7/1/5 43/2/5 19/3/5
f 24/1/4 45/2/4 23/3/4
f 45/1/4 24/2/4 35/3/4
f 14/1/6 41/2/6 12/3/6
f 41/1/6 14/2/6 30/3/6
f 46/1/3 17/2/3 20/3/3
f 17/1/3 46/2/3 32/3/3
usemtl border.018
f 10/2/1 34/1/1 9/4/1
f 34/1/1 10/2/1 38/3/1
f 25/1/2 45/2/2 42/3/2
f 45/2/2 25/1/2 23/4/2
f 30/3/3 40/4/3 41/2/3
f 40/4/3 30/3/3 29/1/3
f 46/2/4 31/1/4 32/4/4
f 31/1/4 46/2/4 37/3/4
