# Blender 4.0.2
# www.blender.org
mtllib low_buildingI.mtl
o low_buildingI
v -0.165659 1.392418 0.146470
v -0.165659 -0.000000 0.146470
v -0.165659 1.392418 0.842679
v -0.165659 0.000000 0.842679
v -0.235280 1.392418 0.216091
v -0.861868 1.392418 0.146470
v -0.792247 1.392418 0.216091
v -0.792247 1.392418 0.773058
v -0.235280 1.392418 0.773058
v -0.861868 1.392418 0.842679
v -0.861868 0.000000 0.842679
v -0.861868 -0.000000 0.146470
v -0.165659 2.088626 0.146470
v -0.165659 1.462038 0.146470
v -0.165659 2.088626 0.842679
v -0.165659 1.462038 0.842679
v -0.235280 2.088626 0.216091
v -0.861868 2.088626 0.146470
v -0.792247 2.088626 0.216091
v -0.792247 2.088626 0.773058
v -0.861868 2.088626 0.842679
v -0.235280 2.088626 0.773058
v -0.861868 1.462038 0.146470
v -0.861868 1.462038 0.842679
v -0.235280 2.019006 0.216091
v -0.235280 2.019006 0.773058
v -0.792247 2.019006 0.773058
v -0.792247 2.019006 0.216091
v -0.235280 1.462038 0.773058
v -0.792247 1.462038 0.773058
v -0.792247 1.462038 0.216091
v -0.235280 1.462038 0.216091
v -0.426737 2.227868 0.372738
v -0.391927 2.227868 0.372738
v -0.426737 2.436731 0.372738
v -0.391927 2.436731 0.372738
v -0.304901 2.227868 0.285712
v -0.304901 2.019006 0.285712
v -0.304901 2.227868 0.494575
v -0.304901 2.019006 0.494575
v -0.391927 2.436731 0.407549
v -0.426737 2.436731 0.407549
v -0.513763 2.019006 0.285712
v -0.513763 2.227868 0.285712
v -0.391927 2.227868 0.407549
v -0.426737 2.227868 0.407549
v -0.513763 2.227868 0.494575
v -0.513763 2.019006 0.494575
vn -0.0000 -0.0000 -1.0000
vn -0.0000 -0.0000 1.0000
vn -0.0000 1.0000 -0.0000
vn -1.0000 -0.0000 -0.0000
vn 1.0000 -0.0000 -0.0000
vn -0.0000 -1.0000 -0.0000
vt 7.874016 41.338581
vt -7.874016 41.338581
vt -7.874016 39.370079
vt 7.874016 39.370079
vt 0.000000 0.000000
vt 0.000000 -5.905512
vt -5.905512 -5.905512
vt -7.874016 -7.874016
vt 7.874016 -7.874016
vt 0.000000 -0.000000
vt 7.874016 7.874016
vt -7.874016 7.874016
vt -5.905512 -0.000000
s 0
usemtl _defaultMat.021
f 3/5/2 10/5/2 11/5/2 4/5/2
f 9/5/3 8/5/3 10/5/3 3/5/3
f 11/5/4 10/5/4 6/5/4 12/5/4
f 3/5/5 4/5/5 2/5/5 1/5/5
f 15/2/5 14/4/5 13/1/5
f 14/2/5 15/4/5 16/1/5
f 13/2/3 17/4/3 15/1/3
f 17/2/3 13/4/3 18/1/3
f 17/2/3 18/4/3 19/1/3
f 19/2/3 18/4/3 20/1/3
f 15/2/3 22/4/3 21/1/3
f 22/2/3 15/4/3 17/1/3
f 21/2/3 22/4/3 20/1/3
f 21/2/3 20/4/3 18/1/3
f 24/2/4 18/4/4 23/1/4
f 18/2/4 24/4/4 21/1/4
f 15/2/2 24/4/2 16/1/2
f 24/2/2 15/4/2 21/1/2
f 26/11/4 17/10/4 25/9/4
f 17/11/4 26/10/4 22/9/4
f 20/3/1 26/1/1 27/2/1
f 26/3/1 20/1/1 22/2/1
f 20/3/5 28/1/5 19/2/5
f 28/3/5 20/1/5 27/2/5
f 18/3/1 14/1/1 23/2/1
f 14/3/1 18/1/1 13/2/1
f 16/3/6 29/1/6 14/2/6
f 29/3/6 16/1/6 24/2/6
f 29/3/6 24/1/6 30/2/6
f 30/3/6 24/1/6 31/2/6
f 14/3/6 32/1/6 23/2/6
f 32/3/6 14/1/6 29/2/6
f 23/3/6 32/1/6 31/2/6
f 23/3/6 31/1/6 24/2/6
f 17/3/2 28/1/2 25/2/2
f 28/3/2 17/1/2 19/2/2
f 35/3/1 34/1/1 33/2/1
f 34/3/1 35/1/1 36/2/1
f 39/3/5 38/1/5 37/2/5
f 38/3/5 39/1/5 40/2/5
f 35/3/3 41/1/3 36/2/3
f 41/3/3 35/1/3 42/2/3
f 44/3/1 38/1/1 43/2/1
f 38/3/1 44/1/1 37/2/1
f 41/3/2 46/1/2 45/2/2
f 46/3/2 41/1/2 42/2/2
f 37/3/3 34/1/3 39/2/3
f 34/3/3 37/1/3 44/2/3
f 34/3/3 44/1/3 33/2/3
f 33/3/3 44/1/3 46/2/3
f 39/3/3 45/1/3 47/2/3
f 45/3/3 39/1/3 34/2/3
f 47/3/3 45/1/3 46/2/3
f 47/3/3 46/1/3 44/2/3
f 46/3/4 35/1/4 33/2/4
f 35/3/4 46/1/4 42/2/4
f 41/3/5 34/1/5 36/2/5
f 34/3/5 41/1/5 45/2/5
f 39/3/2 48/1/2 40/2/2
f 48/3/2 39/1/2 47/2/2
f 48/3/4 44/1/4 43/2/4
f 44/3/4 48/1/4 47/2/4
f 6/5/1 1/5/1 2/5/1 12/5/1
f 9/5/3 3/5/3 1/5/3 6/5/3 10/5/3 8/5/3 7/5/3 5/5/3
f 11/5/6 12/5/6 2/5/6 4/5/6
usemtl border.017
f 31/1/1 32/2/1 5/3/1 7/4/1
f 29/1/2 30/2/2 8/3/2 9/4/2
f 43/6/3 38/7/3 25/8/3 28/9/3 48/10/3
f 26/12/3 25/8/3 38/7/3 40/13/3 48/10/3 28/9/3 27/11/3
f 29/2/5 9/3/5 5/4/5 32/1/5
f 8/4/4 30/1/4 31/2/4 7/3/4
