# Blender 4.0.2
# www.blender.org
mtllib low_buildingH.mtl
o low_buildingH
v -0.800484 -0.000000 0.205208
v -0.800484 0.593540 0.205208
v -0.800484 0.000000 0.798748
v -0.800484 0.593540 0.798748
v -0.385006 0.771603 0.383270
v -0.385006 0.830957 0.383270
v -0.385006 0.771603 0.620686
v -0.385006 0.830957 0.620686
v -0.206944 0.593540 0.205208
v -0.206944 -0.000000 0.205208
v -0.206944 0.593540 0.798748
v -0.206944 0.000000 0.798748
v -0.622422 0.771603 0.383270
v -0.622422 0.830957 0.383270
v -0.622422 0.771603 0.620686
v -0.622422 0.830957 0.620686
v -0.266298 0.593540 0.739394
v -0.741130 0.593540 0.739394
v -0.266298 0.771603 0.739394
v -0.741130 0.771603 0.739394
v -0.741130 0.593540 0.264562
v -0.741130 0.771603 0.264562
v -0.266298 0.771603 0.264562
v -0.325652 0.830957 0.323916
v -0.325652 0.830957 0.680040
v -0.681776 0.830957 0.323916
v -0.681776 0.830957 0.680040
v -0.266298 0.593540 0.264562
vn 0.7071 0.7071 -0.0000
vn -1.0000 -0.0000 -0.0000
vn 1.0000 -0.0000 -0.0000
vn -0.0000 1.0000 -0.0000
vn -0.0000 -0.0000 1.0000
vn -0.0000 -0.0000 -1.0000
vn -0.0000 -1.0000 -0.0000
vn -0.7071 0.7071 -0.0000
vn -0.0000 0.7071 0.7071
vn -0.0000 0.7071 -0.7071
vt 0.000000 0.000000
vt 3.937008 -3.937008
vt 3.937008 3.937008
vt -3.937008 3.937008
vt -3.937008 -3.937008
vt 9.842520 9.842520
vt 7.874016 7.874016
vt 9.842520 -9.842520
vt 7.874016 -7.874016
vt -7.874016 -7.874016
vt -7.874016 7.874016
vt -9.842520 9.842520
vt -9.842520 -9.842520
s 0
usemtl _defaultMat.020
f 24/1/1 25/1/1 19/1/1 23/1/1
f 18/1/2 20/1/2 22/1/2 21/1/2
f 11/1/3 12/1/3 10/1/3 9/1/3
f 6/1/5 14/1/5 13/1/5 5/1/5
f 16/1/6 8/1/6 7/1/6 15/1/6
f 3/1/2 4/1/2 2/1/2 1/1/2
f 19/1/5 20/1/5 18/1/5 17/1/5
f 3/1/7 1/1/7 10/1/7 12/1/7
f 2/6/6 10/7/6 1/8/6
f 10/6/6 2/7/6 9/8/6
f 22/6/8 27/7/8 26/8/8
f 27/6/8 22/7/8 20/8/8
f 22/4/6 28/2/6 21/3/6
f 28/4/6 22/2/6 23/3/6
f 24/4/4 6/2/4 25/3/4
f 6/4/4 24/2/4 26/3/4
f 6/4/4 26/2/4 14/3/4
f 14/4/4 26/2/4 16/3/4
f 25/4/4 8/2/4 27/3/4
f 8/4/4 25/2/4 6/3/4
f 27/4/4 8/2/4 16/3/4
f 27/4/4 16/2/4 26/3/4
f 23/4/4 5/2/4 19/3/4
f 5/4/4 23/2/4 22/3/4
f 5/4/4 22/2/4 13/3/4
f 13/4/4 22/2/4 15/3/4
f 19/4/4 7/2/4 20/3/4
f 7/4/4 19/2/4 5/3/4
f 20/4/4 7/2/4 15/3/4
f 20/4/4 15/2/4 22/3/4
f 19/4/3 28/2/3 23/3/3
f 28/4/3 19/2/3 17/3/3
f 25/4/9 20/2/9 19/3/9
f 20/4/9 25/2/9 27/3/9
f 16/1/3 15/1/3 13/1/3 14/1/3
f 7/1/2 8/1/2 6/1/2 5/1/2
f 11/1/5 4/1/5 3/1/5 12/1/5
f 26/1/10 24/1/10 23/1/10 22/1/10
usemtl border.016
f 13/2/4 15/3/4 7/4/4 5/5/4
f 21/9/4 28/10/4 17/11/4 4/6/4 11/12/4 9/13/4 2/8/4 18/7/4
f 18/7/4 2/8/4 4/6/4 17/11/4
