# Blender 4.0.2
# www.blender.org
mtllib low_buildingC.mtl
o low_buildingC
v -0.874321 1.767885 -0.307103
v -0.116889 1.767885 -0.307103
v -0.874321 1.862564 -0.307103
v -0.116889 1.862564 -0.307103
v -0.116889 1.767885 -0.707103
v -0.874321 1.767885 -0.707103
v -0.116889 1.862564 -0.707103
v -0.874321 1.862564 -0.707103
v -0.022210 1.010454 -0.757103
v -0.116889 1.010454 -0.307103
v -0.022210 1.010454 -0.257103
v -0.969000 1.010454 -0.257103
v -0.874321 1.010454 -0.307103
v -0.874321 1.010454 -0.707103
v -0.969000 1.010454 -0.757103
v -0.116889 1.010454 -0.707103
v -0.022210 1.862564 -0.257103
v -0.022210 1.862564 -0.757103
v -0.969000 1.862564 -0.757103
v -0.969000 1.862564 -0.257103
v -0.022210 0.915775 -0.257103
v -0.116889 0.915775 -0.707103
v -0.022210 0.915775 -0.757103
v -0.969000 0.915775 -0.757103
v -0.874321 0.915775 -0.707103
v -0.874321 0.915775 -0.307103
v -0.969000 0.915775 -0.257103
v -0.116889 0.915775 -0.307103
v -0.116889 0.253023 -0.257103
v -0.116889 0.253023 -0.307103
v -0.874321 0.253023 -0.257103
v -0.874321 0.253023 -0.307103
v -0.969000 -0.031014 -0.757103
v -0.874321 -0.031014 -0.757103
v -0.874321 0.253022 -0.757103
v -0.116889 0.253022 -0.757103
v -0.116889 -0.031014 -0.757103
v -0.022210 -0.031014 -0.757103
v -0.022210 0.253023 -0.307103
v -0.022210 0.253022 -0.707103
v -0.116889 0.253022 -0.707103
v -0.874321 0.253022 -0.707103
v -0.969000 0.253023 -0.307103
v -0.969000 0.253022 -0.707103
v -0.874321 -0.031014 -0.257103
v -0.874321 -0.031014 -0.307103
v -0.969000 -0.031014 -0.257103
v -0.969000 -0.031014 -0.307103
v -0.969000 -0.031014 -0.707103
v -0.874321 -0.031014 -0.707103
v -0.022210 -0.031014 -0.707103
v -0.116889 -0.031014 -0.707103
v -0.022210 -0.031014 -0.257103
v -0.116889 -0.031014 -0.257103
v -0.022210 -0.031014 -0.307103
v -0.116889 -0.031014 -0.307103
v -0.519275 3.803483 -0.519603
v -0.471935 3.803483 -0.519603
v -0.519275 4.182198 -0.519603
v -0.471935 4.182198 -0.519603
v -0.471935 4.182198 -0.494603
v -0.519275 4.182198 -0.494603
v -0.400926 3.803483 -0.557103
v -0.400926 3.614125 -0.557103
v -0.400926 3.803483 -0.457103
v -0.400926 3.614125 -0.457103
v -0.590284 3.614125 -0.457103
v -0.590284 3.803483 -0.457103
v -0.590284 3.614125 -0.557103
v -0.590284 3.803483 -0.557103
v -0.519275 3.803483 -0.494603
v -0.471935 3.803483 -0.494603
v -0.211568 3.661464 -0.657103
v -0.211568 1.767885 -0.657103
v -0.211568 3.661464 -0.357103
v -0.211568 1.767885 -0.357103
v -0.779642 1.767885 -0.357103
v -0.779642 3.661464 -0.357103
v -0.684963 3.614125 -0.407103
v -0.306247 3.614125 -0.407103
v -0.684963 3.661464 -0.407103
v -0.306247 3.661464 -0.407103
v -0.306247 3.614125 -0.607103
v -0.684963 3.614125 -0.607103
v -0.306247 3.661464 -0.607103
v -0.684963 3.661464 -0.607103
v -0.779642 1.767885 -0.657103
v -0.779642 3.661464 -0.657103
vn 1.0000 -0.0000 -0.0000
vn -0.0000 -0.0000 1.0000
vn -0.0000 -1.0000 -0.0000
vn -0.0000 -0.0000 -1.0000
vn -0.0000 1.0000 -0.0000
vn -1.0000 -0.0000 -0.0000
vt 5.905512 5.905512
vt 7.874016 -7.874016
vt 1.968504 1.968504
vt 3.937008 -3.937008
vt 7.874016 5.905512
vt -7.874016 5.905512
vt -7.874016 0.000000
vt 7.874016 0.000000
vt 7.874016 7.874016
vt -7.874016 21.653540
vt -7.874016 19.685040
vt 0.000000 0.000000
vt -7.874016 7.874016
vt -7.874016 -7.874016
vt 3.937008 3.937008
vt -1.968504 1.968504
vt 1.968504 -1.968504
vt -1.968504 -1.968504
vt 7.874016 21.653540
vt 7.874016 19.685040
vt -5.905512 -5.905512
vt -5.905512 5.905512
vt -3.937008 3.937008
vt -3.937008 -3.937008
vt 5.905512 -5.905512
s 0
usemtl _defaultMat.015
f 3/1/1 1/2/1 6/1/1 8/2/1
f 75/3/2 78/4/2 77/3/2 76/4/2
f 13/2/3 10/2/3 16/9/3 9/2/3 11/1/3 12/1/3 14/2/3
f 19/1/4 18/2/4 9/1/4 15/2/4
f 61/6/1 72/7/1 58/6/1 60/7/1
f 88/3/5 81/4/5 86/4/5 85/4/5 82/3/5 78/4/5 75/4/5 73/3/5
f 21/10/5 22/11/5 28/10/5 26/10/5 24/11/5 27/11/5
f 4/9/5 17/2/5 18/1/5 19/1/5 3/2/5 8/2/5 7/2/5
f 3/12/4 4/12/4 2/12/4 1/12/4
f 80/3/6 82/4/6 85/3/6 83/4/6
f 25/11/5 22/10/5 21/11/5 23/10/5 24/10/5 26/11/5
f 75/3/1 76/4/1 74/3/1 73/4/1
f 52/10/3 37/11/3 38/10/3 51/11/3
f 23/8/1 21/8/1 53/5/1 55/5/1 39/5/1 40/5/1 51/6/1 38/5/1
f 14/1/3 12/2/3 15/2/3 9/9/3 16/1/3
f 65/6/2 68/7/2 67/6/2 66/7/2
f 47/11/6 27/11/6 24/10/6 33/11/6 49/10/6 44/10/6 43/10/6 48/11/6
f 49/10/3 33/11/3 34/10/3 50/11/3
f 43/10/3 44/11/3 42/10/3 32/11/3
f 71/7/5 57/7/5 58/6/5 65/7/5 63/6/5 70/7/5 68/8/5
f 47/10/3 48/11/3 46/10/3 45/11/3
f 67/6/6 68/7/6 70/6/6 69/7/6
f 17/1/2 20/2/2 12/1/2 11/2/2
f 17/1/1 11/2/1 9/1/1 18/2/1
f 50/10/2 42/11/2 44/10/2 49/11/2
f 31/8/1 45/5/1 46/8/1 32/5/1
f 88/3/4 73/4/4 74/3/4 87/4/4
f 43/10/4 32/11/4 46/10/4 48/11/4
f 81/3/1 79/4/1 84/3/1 86/4/1
f 42/10/1 50/11/1 34/10/1 35/11/1
f 12/1/6 20/2/6 19/1/6 15/2/6
f 31/10/3 32/11/3 30/10/3 29/11/3
f 29/5/2 54/8/2 53/5/2 21/5/2 27/5/2 47/8/2 45/5/2 31/5/2
f 30/10/3 41/11/3 40/10/3 39/11/3
f 65/6/1 66/7/1 64/6/1 63/7/1
f 85/3/2 86/4/2 84/3/2 83/4/2
f 61/6/2 62/7/2 71/6/2 72/7/2
f 71/6/6 62/7/6 59/6/6 57/7/6
f 77/3/6 78/4/6 88/3/6 87/4/6
f 81/3/4 82/4/4 80/3/4 79/4/4
f 40/6/2 41/7/2 52/6/2 51/7/2
f 65/6/5 58/7/5 72/6/5 71/7/5 68/7/5
f 81/3/5 88/4/5 78/15/5 82/3/5
f 3/1/5 19/2/5 20/2/5 17/9/5 4/1/5
f 54/6/3 56/7/3 55/6/3 53/7/3
f 52/10/6 41/11/6 36/10/6 37/11/6
f 59/6/4 60/7/4 58/6/4 57/7/4
f 54/6/6 29/7/6 30/6/6 56/7/6
f 59/6/5 62/7/5 61/6/5 60/7/5
f 7/1/2 8/2/2 6/1/2 5/2/2
f 42/10/3 35/11/3 36/10/3 41/11/3
f 23/11/4 38/10/4 37/11/4 36/11/4 35/11/4 34/10/4 33/11/4 24/11/4
f 70/6/4 63/7/4 64/6/4 69/7/4
f 56/6/4 30/7/4 39/6/4 55/7/4
f 2/1/6 4/2/6 7/1/6 5/2/6
usemtl border.011
f 30/5/2 32/6/2 46/7/2 56/8/2
f 46/13/3 50/14/3 52/2/3 56/9/3
f 84/4/5 79/15/5 66/16/5 67/3/5 69/17/5 64/18/5
f 14/19/4 16/10/4 22/11/4 25/20/4
f 10/19/2 13/10/2 26/11/2 28/20/2
f 26/20/6 13/19/6 14/10/6 25/11/6
f 46/8/6 32/5/6 42/6/6 50/7/6
f 30/6/1 56/7/1 52/8/1 41/5/1
f 1/9/5 2/13/5 5/14/5 74/21/5 76/22/5 77/1/5
f 66/16/5 79/15/5 80/23/5 83/24/5 84/4/5 64/18/5
f 77/1/5 87/25/5 74/21/5 5/14/5 6/2/5 1/9/5
f 42/5/4 41/6/4 52/7/4 50/8/4
f 10/10/1 28/11/1 22/20/1 16/19/1
